<?xml version="1.0" encoding="UTF-8" standalone="no"?>
<!-- Created with Inkscape (http://www.inkscape.org/) -->
<svg
   xmlns:svg="http://www.w3.org/2000/svg"
   xmlns="http://www.w3.org/2000/svg"
   version="1.0"
   width="1025"
   height="598"
   viewBox="0 0 1026 598"
   id="svg2"
   xml:space="preserve"
   style="fill-rule:evenodd">
 <defs
   id="defs4">
  <style
   type="text/css"
   id="style6" />
 
  
  
  
  
  
  
  
  
  
  
  
  
  
  
  
  
  
  
  
  
  
  
  
  
  
  
  
  
  
  
  
  
  
  
  
  
  
  
  
  
  
  
  
  
  
  
  
  
  
  
  
  
  
  
  
  
  
  
  
  
  
  
  
  
  
  
  
  
  
  
  
  
  
  
  
 </defs>
 
<g
   id="g2724"><path
     d="M 1003,301 C 1015,279 993,249 971,218 C 959,188 933,161 897,134 C 870,101 831,76 775,57 C 737,41 698,28 660,25 C 620,11 582,9 538,9 C 507,11 481,11 460,15 C 437,14 420,15 406,22 C 379,17 323,32 314,47 C 283,45 253,62 229,79 C 206,83 182,101 164,125 C 146,135 135,146 129,159 C 105,175 89,197 74,219 C 30,260 15,306 13,353 C 13,369 8,387 12,403 C 9,429 18,448 25,462 C 58,500 116,502 181,497 C 206,500 230,496 253,490 C 304,494 333,497 341,501 C 380,506 419,515 459,524 C 606,577 643,586 669,582 C 742,582 779,539 743,487 C 767,502 797,505 831,496 C 867,500 904,490 943,464 C 976,442 995,414 1000,377 C 1006,352 1011,326 1003,301 z"
     id="path9"
     style="fill:#ffffff;stroke:#000000;stroke-width:2" /><path
     d="M 948,258 C 927,244 943,219 914,208"
     id="path11"
     style="fill:none;stroke:#000000;stroke-width:2" /><path
     d="M 877,434 C 905,410 952,416 948,358"
     id="path13"
     style="fill:none;stroke:#000000;stroke-width:2" /><path
     d="M 946,355 C 947,360 953,358 954,355"
     id="path15"
     style="fill:none;stroke:#000000;stroke-width:2" /><g
     transform="matrix(0.915402,0.40254,-0.40254,0.915402,294.132,-402.478)"
     id="g17">
   <text
   x="513"
   y="299"
   id="text19"
   style="font-size:18px;font-weight:normal;fill:#000000;font-family:Arial">S U P .</text>

  </g><g
     transform="matrix(0.999508,3.13536e-2,-3.13536e-2,0.999508,-39.2646,-108.771)"
     id="g21">
   <text
   x="513"
   y="299"
   id="text23"
   style="font-size:18px;font-weight:normal;fill:#000000;font-family:Arial">C I N G U L A T E</text>

  </g><path
     d="M 674,46 C 670,57 664,65 657,70"
     id="path25"
     style="fill:none;stroke:#000000;stroke-width:2" /><path
     d="M 732,87 C 739,93 747,96 754,97"
     id="path27"
     style="fill:none;stroke:#000000;stroke-width:2" /><path
     d="M 689,96 C 698,104 702,113 700,123"
     id="path29"
     style="fill:none;stroke:#000000;stroke-width:2" /><path
     d="M 778,66 C 776,62 773,57 768,54"
     id="path31"
     style="fill:none;stroke:#000000;stroke-width:2" /><path
     d="M 699,435 C 697,429 702,424 702,419 C 703,412 704,405 709,401"
     id="path33"
     style="fill:none;stroke:#000000;stroke-width:2" /><path
     d="M 75,288 C 77,285 80,281 84,277"
     id="path35"
     style="fill:none;stroke:#000000;stroke-width:2" /><path
     d="M 100,262 C 117,260 123,251 117,235"
     id="path37"
     style="fill:none;stroke:#000000;stroke-width:2" /><path
     d="M 137,258 C 133,255 122,254 116,257"
     id="path39"
     style="fill:none;stroke:#000000;stroke-width:2" /><path
     d="M 96,427 C 97,422 100,419 103,416"
     id="path41"
     style="fill:none;stroke:#000000;stroke-width:2" /><path
     d="M 137,383 C 143,375 144,364 143,351"
     id="path43"
     style="fill:none;stroke:#000000;stroke-width:2" /><path
     d="M 211,392 C 202,385 200,368 192,360"
     id="path45"
     style="fill:none;stroke:#000000;stroke-width:2" /><path
     d="M 206,428 C 195,426 187,421 184,413"
     id="path47"
     style="fill:none;stroke:#000000;stroke-width:2" /><path
     d="M 145,383 C 149,384 154,386 158,389"
     id="path49"
     style="fill:none;stroke:#000000;stroke-width:2" /><path
     d="M 288,260 C 283,273 275,281 266,287 C 280,274 298,282 301,301"
     id="path51"
     style="fill:none;stroke:#000000;stroke-width:2" /><path
     d="M 232,86 C 231,84 231,81 229,78"
     id="path53"
     style="fill:none;stroke:#000000;stroke-width:2" /><path
     d="M 231,92 C 230,102 234,111 239,119"
     id="path55"
     style="fill:none;stroke:#000000;stroke-width:2" /><path
     d="M 260,142 C 266,152 277,162 281,174"
     id="path57"
     style="fill:none;stroke:#000000;stroke-width:2" /><path
     d="M 375,221 C 387,217 399,218 410,228"
     id="path59"
     style="fill:none;stroke:#000000;stroke-width:2" /><g
     transform="matrix(0.985468,-0.169861,0.169861,0.985468,-182.9,-121.73)"
     id="g61">
   <text
   x="513"
   y="299"
   id="text63"
   style="font-size:18px;font-weight:normal;fill:#000000;font-family:Arial">P A R A C E N T R A L</text>

  </g><g
     transform="matrix(0.985468,-0.169861,0.169861,0.985468,-132.437,-93.2081)"
     id="g65">
   <text
   x="513"
   y="299"
   id="text67"
   style="font-size:18px;font-weight:normal;fill:#000000;font-family:Arial">L O B U L E</text>

  </g><path
     d="M 524,41 L 528,34"
     id="path69"
     style="fill:none;stroke:#000000;stroke-width:2" /><path
     d="M 481,86 C 485,79 490,74 498,72"
     id="path71"
     style="fill:none;stroke:#000000;stroke-width:2" /><path
     d="M 418,94 C 420,88 424,82 429,77"
     id="path73"
     style="fill:none;stroke:#000000;stroke-width:2" /><g
     transform="matrix(0.999508,3.13536e-2,-3.13536e-2,0.999508,-416.064,90.1602)"
     id="g75">
   <text
   x="513"
   y="299"
   id="text77"
   style="font-size:18px;font-weight:normal;fill:#000000;font-family:Arial">L I N G U A L</text>

  </g><g
     transform="matrix(0.999508,3.13536e-2,-3.13536e-2,0.999508,-450,-38.5601)"
     id="g79">
   <text
   x="513"
   y="299"
   id="text81"
   style="font-size:18px;font-weight:normal;fill:#000000;font-family:Arial">C U N E U S</text>

  </g><g
     transform="matrix(0.837694,-0.54614,0.54614,0.837694,-411.52,205.364)"
     id="g83">
   <text
   x="513"
   y="299"
   id="text85"
   style="font-size:18px;font-weight:normal;fill:#000000;font-family:Arial">P R AE C U N E U S</text>

  </g><g
     transform="matrix(0.978252,0.207419,-0.207419,0.978252,-73.1364,19.5681)"
     id="g87">
   <text
   x="513"
   y="299"
   id="text89"
   style="font-size:18px;font-weight:normal;fill:#000000;font-family:Arial">H I P P O C A M P A L</text>

  </g><path
     d="M 727,406 C 738,407 750,410 765,414 C 781,415 796,414 812,410 C 825,411 838,410 852,407 C 898,379 908,337 893,286 C 891,284 888,282 886,282 C 888,278 885,272 882,267 C 863,246 839,231 815,215 C 800,207 784,199 769,192 C 741,185 720,162 686,155 C 670,155 654,153 638,148 C 623,148 610,144 598,136 C 559,132 536,138 517,146 C 506,147 494,148 482,149 C 454,162 426,167 399,168 C 398,172 395,175 392,177 C 395,153 373,143 358,128 C 355,128 353,128 350,128 C 352,120 347,111 342,102 C 329,88 306,74 312,47 C 314,48 315,46 317,45 C 313,60 319,75 334,86 C 343,93 351,103 358,117 C 371,130 384,144 397,157 C 418,164 440,158 462,149 C 469,148 476,145 485,141 C 508,141 529,136 548,129 C 569,129 585,127 590,120 C 589,86 590,54 602,30 C 597,58 597,90 597,122 C 606,134 619,140 636,139 C 650,148 668,149 687,148 C 700,156 714,157 727,159 C 741,177 757,184 774,186 C 787,195 805,204 824,214 C 850,232 886,257 897,278 C 900,292 903,306 909,313 C 906,318 906,322 906,327 C 901,383 873,401 853,413 C 833,413 811,415 786,420 C 756,418 736,410 727,406 z"
     id="path91"
     style="fill:#000000" /><path
     d="M 343,57 C 377,53 405,45 409,27 C 410,24 414,21 418,18 C 411,21 404,24 398,21 C 413,40 373,48 343,57 z"
     id="path93"
     style="fill:#000000" /><path
     d="M 743,487 C 699,466 663,443 659,411 C 640,388 586,383 574,408 C 569,420 573,432 588,435 C 497,434 413,413 403,362 C 411,321 465,286 545,289 C 619,290 672,320 666,378 C 680,356 702,347 732,350 C 745,350 751,346 745,335 C 706,290 653,276 593,276 C 476,282 420,311 404,357 C 383,383 358,385 328,357 C 310,328 331,289 375,278 C 454,251 524,233 577,231 C 656,226 697,244 729,264 C 772,291 827,317 811,349 C 790,374 770,367 750,365 C 686,351 659,371 658,410 C 666,385 680,373 701,373"
     id="path95"
     style="fill:none;stroke:#000000;stroke-width:2" /><g
     transform="matrix(0.995976,8.96221e-2,-8.96221e-2,0.995976,102.529,78.0297)"
     id="g97">
   <text
   x="513"
   y="299"
   id="text99"
   style="font-size:18px;font-weight:normal;fill:#000000;font-family:Arial">UNCUS</text>

  </g><g
     transform="matrix(0.967528,0.252762,-0.252762,0.967528,-45.7707,41.4409)"
     id="g101">
   <text
   x="513"
   y="299"
   id="text103"
   style="font-size:18px;font-weight:normal;fill:#000000;font-family:Arial">F U S I F O R M</text>

  </g><path
     d="M 591,395 C 568,403 564,431 589,435 C 511,434 414,402 425,372 C 438,333 551,356 591,395 z"
     id="path105"
     style="fill:#c4c4c4;stroke:#000000;stroke-width:2" /><path
     d="M 425,371 C 449,303 621,276 660,368 C 652,372 654,378 658,385 C 653,396 656,404 658,410"
     id="path107"
     style="fill:none;stroke:#000000;stroke-width:2" /><path
     d="M 702,522 C 693,530 680,527 671,524 C 662,522 645,537 628,540 C 639,544 659,530 670,530 C 686,535 698,533 702,522 z"
     id="path109"
     style="fill:#000000" /><path
     d="M 325,159 C 332,184 330,207 316,228 C 330,191 350,187 369,178"
     id="path111"
     style="fill:none;stroke:#000000;stroke-width:2" /><path
     d="M 324,252 C 322,232 316,220 301,230 C 283,240 264,216 252,211"
     id="path113"
     style="fill:none;stroke:#000000;stroke-width:2" /><path
     d="M 260,234 C 263,229 269,228 274,227"
     id="path115"
     style="fill:none;stroke:#000000;stroke-width:2" /><path
     d="M 649,460 C 647,499 605,493 580,487 C 558,487 523,472 509,465 C 527,478 549,489 580,493 C 602,500 632,496 644,487 C 651,479 653,471 649,460 z"
     id="path117"
     style="fill:#000000" /><path
     d="M 479,467 C 468,463 457,460 445,457 C 436,457 428,454 421,452 C 402,451 376,444 352,440 C 331,449 312,452 290,452 C 286,453 282,453 278,454 C 254,461 220,462 169,448 C 162,448 154,448 147,448 C 100,461 73,454 55,432 C 100,460 145,450 152,432 C 187,461 284,456 287,443 C 296,449 319,449 347,433 C 363,437 383,442 402,446 C 410,448 419,449 424,444 C 426,451 436,453 451,453 C 461,456 470,462 479,467 z"
     id="path119"
     style="fill:#000000" /><path
     d="M 18,427 C 15,411 25,399 40,390 C 52,384 60,373 68,357 C 91,322 128,301 171,307 C 176,306 210,324 221,322 C 223,323 220,300 217,290 C 210,272 203,255 196,238 C 181,220 169,203 158,178 C 156,166 143,160 125,161 C 126,160 129,159 130,156 C 147,155 159,161 164,176 C 174,203 187,219 201,232 C 206,245 211,259 217,273 C 223,290 226,307 229,325 C 237,353 259,367 288,374 C 291,372 294,370 297,369 C 302,378 311,381 320,380 C 340,396 363,391 371,389 C 383,389 392,393 398,401 C 389,396 379,393 371,394 C 355,401 337,396 317,388 C 301,380 287,379 273,380 C 273,377 271,375 266,373 C 250,368 236,360 228,342 C 217,329 199,319 173,314 C 151,309 128,314 102,329 C 94,336 88,344 86,352 C 84,351 83,350 81,348 C 73,361 68,375 57,389 C 31,399 21,412 18,427 z"
     id="path121"
     style="fill:#000000" /><g
     transform="matrix(0.967528,0.252762,-0.252762,0.967528,-44.0994,80.9705)"
     id="g123">
   <text
   x="513"
   y="299"
   id="text125"
   style="font-size:16px;font-weight:normal;fill:#000000;font-family:Arial">INF. TEMP. GYRUS</text>

  </g><g
     transform="matrix(0.997164,7.5262e-2,-7.5262e-2,0.997164,-164.532,140.081)"
     id="g127">
   <text
   x="513"
   y="299"
   id="text129"
   style="font-size:18px;font-weight:normal;fill:#000000;font-family:Arial">Infr</text>

  </g><g
     transform="matrix(0.9582,0.286098,-0.286098,0.9582,25.2849,58.0811)"
     id="g131">
   <text
   x="513"
   y="299"
   id="text133"
   style="font-size:18px;font-weight:normal;fill:#000000;font-family:Arial">temp.</text>

  </g><g
     transform="matrix(0.999188,4.02997e-2,-4.02997e-2,0.999188,68.7303,215.815)"
     id="g135">
   <text
   x="513"
   y="299"
   id="text137"
   style="font-size:18px;font-weight:normal;fill:#000000;font-family:Arial">sulcus</text>

  </g><g
     transform="matrix(0.937449,-0.348124,0.348124,0.937449,-134.78,228.143)"
     id="g139">
   <text
   x="513"
   y="299"
   id="text141"
   style="font-size:18px;font-weight:normal;fill:#000000;font-family:Arial">F o r n i x</text>

  </g><g
     transform="matrix(0.991038,-0.133581,0.133581,0.991038,-115.847,56.1)"
     id="g143">
   <text
   x="513"
   y="299"
   id="text145"
   style="font-size:18px;font-weight:normal;fill:#000000;font-family:Arial">C o r p u s</text>

  </g><g
     transform="matrix(0.975754,0.218871,-0.218871,0.975754,152.214,-248.124)"
     id="g147">
   <text
   x="513"
   y="299"
   id="text149"
   style="font-size:18px;font-weight:normal;fill:#000000;font-family:Arial">C i n g u l a t e</text>

  </g><g
     transform="matrix(0.652178,-0.758066,0.758066,0.652178,-522.115,629.434)"
     id="g151">
   <text
   x="513"
   y="299"
   id="text153"
   style="font-size:18px;font-weight:normal;fill:#000000;font-family:Arial">C a l c a r i n e</text>

  </g><g
     transform="matrix(0.99565,9.31716e-2,-9.31716e-2,0.99565,-351.023,-8.47124)"
     id="g155">
   <text
   x="513"
   y="299"
   id="text157"
   style="font-size:18px;font-weight:normal;fill:#000000;font-family:Arial">f i s s u r e</text>

  </g><g
     transform="matrix(0.951145,-0.308743,0.308743,0.951145,-241.487,-72.175)"
     id="g159">
   <text
   x="513"
   y="299"
   id="text161"
   style="font-size:16px;font-weight:normal;fill:#000000;font-family:Arial">Central</text>

  </g><g
     transform="matrix(0.951145,-0.308743,0.308743,0.951145,-229.912,-52.883)"
     id="g163">
   <text
   x="513"
   y="299"
   id="text165"
   style="font-size:16px;font-weight:normal;fill:#000000;font-family:Arial">sulcus</text>

  </g><path
     d="M 197,482 C 185,476 174,473 171,476 C 165,477 157,478 145,474 C 152,479 155,483 171,481 C 178,478 194,485 197,482 z"
     id="path167"
     style="fill:#000000" /><path
     d="M 306,477 C 297,471 280,473 276,476 C 270,477 255,476 242,473 C 250,477 260,483 276,481 C 283,477 303,478 306,477 z"
     id="path169"
     style="fill:#000000" /><path
     d="M 430,497 C 421,489 413,482 401,484 C 388,486 378,482 371,477 C 374,482 381,491 401,488 C 410,486 427,498 430,497 z"
     id="path171"
     style="fill:#000000" /><path
     d="M 551,527 C 542,522 532,525 522,518 C 507,507 499,506 491,504 C 494,509 505,514 520,522 C 527,528 547,530 551,527 z"
     id="path173"
     style="fill:#000000" /><g
     transform="matrix(0.507955,0.861383,-0.861383,0.507955,171.352,-408.731)"
     id="g175">
   <text
   x="513"
   y="299"
   id="text177"
   style="font-size:18px;font-weight:normal;fill:#000000;font-family:Arial">Parieto-occip.</text>

  </g><g
     transform="matrix(0.659551,0.75166,-0.75166,0.659551,121.026,-261.559)"
     id="g179">
   <text
   x="513"
   y="299"
   id="text181"
   style="font-size:18px;font-weight:normal;fill:#000000;font-family:Arial">fissure</text>

  </g><g
     transform="matrix(0.993319,0.115401,-0.115401,0.993319,-148.34,26.9369)"
     id="g183">
   <text
   x="513"
   y="299"
   id="text185"
   style="font-size:12px;font-weight:normal;fill:#000000;font-family:Arial">I S T H M U S</text>

  </g><g
     transform="matrix(0.843447,-0.537212,0.537212,0.843447,76.0068,436.218)"
     id="g187">
   <text
   x="513"
   y="299"
   id="text189"
   style="font-size:14px;font-weight:normal;fill:#000000;font-family:Arial">Parolfactory</text>

  </g><g
     transform="matrix(0.843447,-0.537212,0.537212,0.843447,81.8537,452.297)"
     id="g191">
   <text
   x="513"
   y="299"
   id="text193"
   style="font-size:14px;font-weight:normal;fill:#000000;font-family:Arial">area</text>

  </g><g
     transform="matrix(0.999508,3.13536e-2,-3.13536e-2,0.999508,-291.088,94.3729)"
     id="g195">
   <text
   x="513"
   y="299"
   id="text197"
   style="font-size:18px;font-weight:normal;fill:#000000;font-family:Arial">G Y R U S</text>

  </g><g
     transform="matrix(0.978252,0.207419,-0.207419,0.978252,117.838,60.2905)"
     id="g199">
   <text
   x="513"
   y="299"
   id="text201"
   style="font-size:18px;font-weight:normal;fill:#000000;font-family:Arial">G Y R U S</text>

  </g><g
     transform="matrix(0.967528,0.252762,-0.252762,0.967528,100.97,80.057)"
     id="g203">
   <text
   x="513"
   y="299"
   id="text205"
   style="font-size:18px;font-weight:normal;fill:#000000;font-family:Arial">G Y R U S</text>

  </g><g
     transform="matrix(0.999508,3.13536e-2,-3.13536e-2,0.999508,118.632,-104.677)"
     id="g207">
   <text
   x="513"
   y="299"
   id="text209"
   style="font-size:18px;font-weight:normal;fill:#000000;font-family:Arial">G Y R U S</text>

  </g><g
     transform="matrix(0.92154,0.388283,-0.388283,0.92154,382.403,-276.849)"
     id="g211">
   <text
   x="513"
   y="299"
   id="text213"
   style="font-size:18px;font-weight:normal;fill:#000000;font-family:Arial">s u l c u s</text>

  </g><g
     transform="matrix(0.991038,-0.133581,0.133581,0.991038,-13.5063,41.48)"
     id="g215">
   <text
   x="513"
   y="299"
   id="text217"
   style="font-size:18px;font-weight:normal;fill:#000000;font-family:Arial">c a l l o s u m</text>

  </g><g
     transform="matrix(0.915402,0.40254,-0.40254,0.915402,363.724,-371.483)"
     id="g219">
   <text
   x="513"
   y="299"
   id="text221"
   style="font-size:18px;font-weight:normal;fill:#000000;font-family:Arial">F R O N T A L</text>

  </g><g
     transform="matrix(0.892059,0.451919,-0.451919,0.892059,517.456,-333.525)"
     id="g223">
   <text
   x="513"
   y="299"
   id="text225"
   style="font-size:18px;font-weight:normal;fill:#000000;font-family:Arial">G Y R U S</text>

  </g><g
     transform="matrix(0.9994777,3.2300534e-2,-3.2300534e-2,0.9994777,-318.13739,127.03525)"
     id="g2712"
     style="fill-rule:evenodd">
   <text
   x="513"
   y="299"
   id="text2714"
   style="font-size:18px;font-weight:normal;fill:#000000;font-family:Arial">Collateral</text>

  </g><g
     transform="matrix(0.9883821,-0.1519907,0.1519907,0.9883821,-276.10469,225.01711)"
     id="g2720"
     style="fill-rule:evenodd">
   <text
   x="513"
   y="299"
   id="text2722"
   style="font-size:18px;font-weight:normal;fill:#000000;font-family:Arial">fissure</text>

  </g></g></svg>