<?xml version="1.0" encoding="utf-8"?>
<!-- Generator: Adobe Illustrator 15.0.0, SVG Export Plug-In . SVG Version: 6.00 Build 0)  -->
<!DOCTYPE svg PUBLIC "-//W3C//DTD SVG 1.1//EN" "http://www.w3.org/Graphics/SVG/1.1/DTD/svg11.dtd">
<svg version="1.1" xmlns="http://www.w3.org/2000/svg" xmlns:xlink="http://www.w3.org/1999/xlink" x="0px" y="0px"
	 width="1061.947px" height="772.501px" viewBox="0 0 1061.947 772.501" style="enable-background:new 0 0 1061.947 772.501;"
	 xml:space="preserve">
<style type="text/css">
<![CDATA[
	.st0{font-family:'AmaticSC-Regular';}
	.st1{fill:#FFFFFF;stroke:#000000;stroke-miterlimit:10;}
	.st2{fill:#FFFFFF;stroke:#000000;stroke-width:3;}
	.st3{fill:#FFFFFF;stroke:#000000;stroke-width:4;}
	.st4{fill:none;stroke:#000000;}
	.st5{fill:none;stroke:#000000;stroke-miterlimit:10;}
	.st6{fill:#FFFFFF;}
	.st7{fill:none;}
	.st8{fill:#FFFFFF;stroke:#000000;}
	.st9{font-size:21;}
	.st10{font-size:24;}
	.st11{font-size:30;}
	.st12{font-size:36;}
	.st13{font-size:48;}
]]>
</style>
<g id="Outline">
	<path id="Brain" class="st8" d="M237.247,107.085c16.8-16.833,42.886-34.582,64.631-43.494c14.827-5.94,49.421-18.814,64.249-7.922
		C389.848,37.846,407.357,17.817,438,15.837c14.823-0.991,40.317,6.585,52.179,5.594c11.861-1.979,26.188-4.379,40.026-5.371
		c27.672-2.97,46.795,16.44,73.139,17.824c19.401,1.019,23.89-14.316,43.656-7.383c12.625,4.211,12.57,5.692,28,6.881
		c22.732,0.991,36,13.119,69.694,13.376C767.96,46.937,783,72.501,807.95,86.367c12.47,6.93,15.821,9.901,19.776,23.764
		c2.958,12.872,8.407,14.41,19.274,18.371c16.802,4.952,13.337,0.444,31.136,12.325c18.778,12.874,19.767,18.814,11.856,39.608
		c12.854,5.943,43.315-8.574,50.315,56.553c1.798,16.728,6.803-15.146,20.692,5.641c35,52.38,32.156,38.158,46,66.874
		c7.91,15.844,11.489,31.347,10.5,50.159c-0.988,14.855-3.955,31.688-8.9,44.562c-7.899,18.811-10.866,32.673-13.832,53.47
		c-1.979,14.851-5.934,25.743-19.767,33.665c-48.411,27.716-120.507,13.484-163.528,15.193
		c-99.473,3.951-122.449,19.953-195.274,60.064c-13.439,7.402-30.644,8.91-45.467,12.874c-11.479,2.464-5.012-2.185-41.515,7.917
		c-14.558,4.03-19.771,19.808-33.61,28.719c-12.85,6.934-26.684,13.862-40.522,16.832c-30.644,5.94-63.26-2.97-91.925-15.844
		c-12.85-4.947-27.677-9.899-37.561-19.803c-10.872-11.881-16.805-28.714-28.666-38.617c-12.85-12.874-17.789-3.961-33.605,0
		c-19.771,4.951-60.718-6.15-68.789-4.942c-33.743,5.05-20.309,3.058-33.539,0c-23.725-4.952-40.573-25.417-56.39-42.249
		c-20.755-24.755-40.945-55.792-51.817-87.476c-3.955-13.862-15.021-30.804-8.899-45.551c10.367-24.974,0.641-30.109-0.348-43.974
		c-0.989-10.893,4.304-15.438,5.292-27.32c0.989-11.883,6.917-18.814,11.861-29.707c6.917-11.881,7.905-28.716,15.816-40.597
		c7.906-9.904,17.571-26.26,30.639-28.716c15.816-2.971,15.846-44.66,58.32-67.335c19.895-10.621,55.35-36.636,79.071-33.666"/>
	<path id="Cerebellum_1_" class="st8" d="M920,512.501c1,15,6,22,2,37c-5,14-16,25-25,37c-6,8-12,20-20,25c-5,3-11,2-15,4
		c-16,10-21,26-40,34c-28,12-52,23-82,25c-13,1-30,2-42-2c-14-5-24-14-39-19c-43-12-86-23-95-72"/>
</g>
<g id="Lobes">
	<g id="Cerebellum">
		<path id="CerrebelumS" class="st8" d="M855,615.501c28-5,68-41,66-71c-1-7-10-37-15-42c-16-16-69-7-89-5c-44,5-85,4-128,13
			c-22,5-40,16-61,23c-14,4-34,9-45,19c-18,18-3,61,17,70c31,14,62,25,94,35c29,9,49,13,79,4c27-9,66-22,83-46"/>
		<text id="CerebellumT" transform="matrix(0.9846 -0.1745 0.1745 0.9846 693.5835 593.894)" class="st0 st13">Cerebellum</text>
	</g>
	<g id="Parietal_1_">
		<path id="ParietalS" class="st8" d="M781,324.501c-3-44-17-81,0-125c5-12,10-27,16-39c3-7,9-12,14-18c13-18,1-30-16-45
			c-15-13-43-32-63-35c-6,0-14,2-19,1c-8-2-17-7-26-11c-17-7-28-7-47-7c-7,0-9,1-15,0s-11-6-17-7c-18,0-21,16-31,27
			c-13,14-35,22-51,35c-18,14-25.376,32.138-17.376,52.138c9,26-5.624,14.862-15.624,35.862c-6,14-5,30-8,45c-4,20-17,35-23,55
			c-3,12-6,30-3,43c4,21,15,10,32,8c5,0,16,1,20-1c8-4,15-17,24-22c25-14,48-14,75-16c18-1,36-6,54-3c15,1,29,8,44,11
			c25,4,50,12,74,16"/>
		<text id="ParietalT" transform="matrix(0.999 0.0456 -0.0456 0.999 553.0767 204.8091)" class="st0 st13">Parietal Lobe</text>
	</g>
	<g id="Frontal_1_">
		<path id="FrontalS" class="st8" d="M459,338.501c0-33-3-61,13-90c8-16,8-37,16-55c6-13,20-36,24-50c3-10,1-11,0-21
			c-1-19-4-19,11-30c19-16,44-25,56-48c-34-9-86.243-10-121.243-6c-28,3-53.757,17-80.757,24c-9,2-16,7-24,10c-18,5-38,0-56,6
			c-26,8-37,36-59,46c-10,5-19,3-30,11c-16,12-38,21-54,34c-11,9-15,25-25,35c-9,9-18,12-27,20c-20,16-22,37-31,59
			c-11,24-22,34-14,59c6,21-2.739,24-2.739,46c1,28,22.739,69,36.739,92c11,17,26,36,41,51s50,16,69,18c17,2,56,9,72-1
			c14-9,50.875-90.614,58.875-104.614c14-22-4.875,4.614,0.125-21.386c10-60,73-61,121-76"/>
		<text id="FrontalT" transform="matrix(0.98 -0.1992 0.1992 0.98 152.2202 338.959)" class="st0 st13">Frontal Lobe</text>
	</g>
	<g id="Temporal_1_">
		<path id="TemporalS" class="st8" d="M328.298,437.591c-4.971-116.84,298.147-116.12,130.702-86.09c-20.292,3.639,37-16,57-19
			c31-5,25.938-17.361,54.938-28.361c45-18,136.062-9.639,178.062,11.361c9,5,23.077,8.729,29.077,17.729
			c8,11,18.923,24.771,4.923,63.271c-9.952,27.367-4.306,49.642-20.306,73.642c-10,14-33.694,35.358-50.694,40.358c-13,4-26,2-39,6
			c-45,13-76,50-122,61c-6,2-14,0-20,2c-9,3-13,10-22,19c-15,14-38,24-58,28c-13,2-20-2-32-1c-24,2-38,1-61-8c-13-5-15-8-24-18
			c-13-13-29-20-40-37c-16-26-13-41,2-69c9-18,12.506-39.614,35.875-49.614"/>
		<text id="TemporalT" transform="matrix(0.9528 -0.3037 0.3037 0.9528 448.1011 486.9019)" class="st0 st13">Temporal Lobe</text>
	</g>
	<g id="Occipital_1_">
		<path id="Occipital" class="st8" d="M727,510.501c40,0,72.518-14.785,117-11c23.503,2,48-1,72,1c13,1,30.98-2.55,42.98-6.55
			c32-13,29.021-47.165,40.021-73.165c9-22,13.654-27.216,13.999-55.285c0.344-28-14-58-39-87c-6.16-7.146-15-27-24-31
			c-15-7-17.333,6.016-18-12c-1-27-7-32-25-44c-7-4-11-1-16-7c-6-5-4-20-8-26c-11-15-37-29-58-21c-16,6-28,39-33,55
			c-9,25-18,50-18,76c0,31,4,26,7,56c2,22,2,77-2,100c-7,38-25,67-57,87"/>
		<text id="OccipitalT" transform="matrix(0.9907 0.1358 -0.1358 0.9907 799.7417 350.8989)" class="st0 st13">Occipital Lobe</text>
	</g>
</g>
<g id="Gyri">
	<g id="SFG">
		<path id="SFGs" class="st8" d="M100,265.501c1-10,24-34,32-40c10-8,24-6,35-13c13-8,26-12,38-20c7-3,10-10,15-15c11-8,25-13,37-19
			c24-10,47-18,71-29c22-11,37-20,63-24c15-3,28-3,43-6c27-8,70-6,59-45c-13-47-61-35.042-94-18c-15.287,7.895-24,20-41,23
			c-18,4-39,0-58,4c-21,5-34,24-49,38c-19,17-47,22-70,34c-16,8-33,18-43,32c-9,12-13,25-24,36c-9,9-19,19-26,31c-8,15-4,19,7,30"/>
		<text id="SFGt" transform="matrix(0.9749 -0.2226 0.2226 0.9749 282.771 113.7065)" class="st0 st12">Sup Frontal Gyrus</text>
	</g>
	<g id="MFG">
		<path id="MFGs" class="st8" d="M449,105.501c0,19-6,30,1,48c6,15,11,24,11,42c0,30-26,52-51,66c-5,3-10,5-15,7c-2,1-6-1-8,0
			c-6,3-7,10-12,13c-13,7-27,0-40,4s-24,20-34,28c-20,14-33,13-55,8c-15-3-23,6-40,6c-11,0-22-4-35-3c-8,1-21,6-29,3
			c-9-4-8-15-14-20c-7-7-11,2-18-5c-7-6-16-25-16-34c2-19,21-40,37-48c12-7,27-2,37-9c8-5,22.169-23.694,31.169-28.694
			c8-4,14.793-2.148,22.793-5.148c21-7,21.037-29.157,42.037-40.157c8-5,17-6,26-5c3,0,4,6,5,6c9,0,15-7,22-11c20-10,43-21,65-25
			c16-3,62-17,68,4"/>
		<text id="MFGt" transform="matrix(0.9067 -0.4219 0.4219 0.9067 196.8013 276.1631)" class="st0 st12">Middle Frontal Gyrus</text>
	</g>
	<g id="ACG">
		<path id="ACGs" class="st8" d="M396,323.501c-1,11-5.635,11.66,0.365,20.66c9,12,11.635-3.66,25.635-8.66c10-5,25,6,31-4
			c5-8,4-20,2-10c-1.919,9.596,6.166-8.332,20-36c6-12,4-25,7-38s12-23,17-35c3-11,3-24,9-34c8-14,19.578-25.328,18.578-43.328
			c-1-27-14.506-46.735,18.422-48.672c17-1,63-48,32-54c-11.984-2.319-27.977-12.355-38.977-13.355c-13-1-15.085-1.217-27.023,0.355
			c-41.321,5.444-14,44-19,70c-30,0-42,25-47,52c-5,24,12,39,12,61c0,12-12,20-18,30c-6,9-10,19-15,29c-10,21-33,37-31,62"/>
		<text id="ACGt" transform="matrix(0.1653 -0.9862 0.9862 0.1653 468.8433 286.0674)" class="st0 st11">Anterior Central Gyrus</text>
	</g>
	<g id="IFG">
		<path id="IFGs" class="st8" d="M216.204,326.391c22.797-3.053,68.796,9.111,92.796-8.889c8-7,13-19,21-25c12-7,24-5,36-13
			c15-10,33-19,50-23c3,15-3,22-10,35c-8,14-9,22-9,38c-1,38-46,39-63,67c-5,9-6,34-8,49c-3,17-2,17.145-19,23.145
			c-11,4-26,6.855-36,9.855c-29,7-29.604,5.333-60,6.38c-18,0.62-33-8.38-45-15.38c-15-10-30.208-41.768-42-55.403
			c-23-26.597-30-65.511,4-106.597c5,19,25.555,14.792,43,17C185.749,326.368,190.334,328.448,216.204,326.391"/>
		<text id="IFGt" transform="matrix(1 0 0 1 169.8735 392.5015)"><tspan x="0" y="0" class="st0 st12">Inf Frontal</tspan><tspan x="29.54" y="43.2" class="st0 st12">Gyrus</tspan></text>
	</g>
	<g id="PCG">
		<path id="PCGs" class="st8" d="M460,310.501c-6,10-5,32-4,43c11-1,21-9,34-10c14-1,19-2,28-12c13-16,15-44,20-63c2-11-1-19,10-26
			c9-5,20-4,28-11c19-18,21-57,23-79c11,3,26,20,37,11c10-9,19.593-32.667,5.128-46.397C618,95.151,664.502,66.501,648.502,38.501
			c-6-11-26.502-1-40.502,0c-18,1-18,5-19,19c-2,19-6,14-22,17c-14,3-34,7-44,18c-6,7-9,20-8,30c1,12,13,17,14,28c1,12-8,11-15,18
			c-8,7-12,14-14,25c-1,8,1.013,25-0.987,33c-2,9-9.013,7-11.013,16s1,18-1,26C484,279.501,469,304.501,460,310.501"/>
		<text id="PCGt" transform="matrix(0.4428 -0.8966 0.8966 0.4428 531.5181 248.8228)" class="st0 st12">Post Central Gyrus</text>
	</g>
	<g id="SPL">
		<path id="SPLs" class="st8" d="M642,165.501c16,0,16,6,32,7c8,0,26-4,34,0c3,1,5,7,9,9c2,2,8,0,10,2c9,6,17,23,32,24
			c10,0,31-39,38-47c14-17,33-25,23-47c-6-14-20-22-33-30c-12-7-23-19-35-25c-15-7-31,0-47-7c-16-6-34-23-53-16c5,9,3,19,0,28
			c-6,18-9,17-3,36c2,10,3,8-1,19c-2,6-6,12-7,18c-2,11-2,20,3,29"/>
		<text id="SPLt" transform="matrix(0.9456 0.3253 -0.3253 0.9456 678.7222 89.2847)"><tspan x="0" y="0" class="st0 st12">Sup Parietal</tspan><tspan x="28.31" y="43.201" class="st0 st12">Lobule</tspan></text>
	</g>
	<g id="IPL">
		<path id="IPLs" class="st8" d="M533,316.501c7-11,8-29,11-41c1-5,1-17,4-21c8-8,24-1,33-10c10-8,12-25,15-37c6-23,3-34,27-34
			c17,0,24-7,41-4c11,1,27.05-2.639,37.05,1.361c22,8,30.223,36.639,53.95,45.639c5.61,2.128,12-2,17-3c3,22,11,30,11,52
			c0,7-3,36-7,41c-10,12-35-6-48-8c-64-10-131-27-187,17"/>
		<text id="IPLt" transform="matrix(1 0 0 1 607.4565 217.5015)"><tspan x="0" y="0" class="st0 st12">Inf Parietal</tspan><tspan x="29.391" y="43.2" class="st0 st12">Lobule</tspan></text>
	</g>
	<g id="ITG">
		<path id="ITGs" class="st8" d="M318,573.501c17,0,34,1,50-4c17-5,30-17,45-24c17-9,36-1,54-6c19-5,27-13,48-13c17,0,28-5,44-8
			c19-5,40-1,59-3c14-1,26-6,41-6s24,1,36-6c6-3,30.821-13.547,36.821-16.547c5-3,11.179-11.453,14.179-0.453c3,12-38,30-45,34
			c-36,18-66,33.625-102,45.625c-16,5-33,5.375-49,12.375c-8,4-20,2-27,7c-10,6-15,21-24,28c-19,13-41,20-64,20
			c-21,0-35.762-1.159-54.762-9.159c-14-6-37.238-11.841-48.238-20.841c-10-8-22-3-25-32"/>
		<text id="ITGt" transform="matrix(0.9785 -0.2064 0.2064 0.9785 480.3979 581.8745)" class="st0 st11">Inf Temporal Gyrus</text>
	</g>
	<g id="MTG">
		<path id="MTGs" class="st8" d="M705,307.501c-8-21,59-5,68,4c13,14,20.734,46,16.734,64c-3,13-7.734,36-10.734,49
			c-3,19,5,23-12,50c-10.549,16.755-41,14-58,19s-33,11-52,14c-37,6-63,11-98,22c-16,4-41-5-55-2c-15,2-24,16-42,19c-17,2-33-1-48,1
			c-18,2-28,18-46,22c-26,7-74.745,5.511-82.745-25.489c16-3,46.745-11.511,53.745-28.511c17,6,19-22,25-31c7-9,17-9,29-10
			c30-2,59,13,85-7c5-4,11-14,17-16c7-2,22,3,29,4c30,6,53,11,82-2c9-4,19-13,26-16c8-4,21-5,30-8c22-6,31-14,42-35
			c17-32,25-75-2-104"/>
		<text id="MTGt" transform="matrix(0.968 -0.251 0.251 0.968 553.6206 512.5063)" class="st0 st12">Mid Temporal Gyrus</text>
	</g>
	<g id="STG">
		<path id="STGs" class="st8" d="M328,440.501c3-18,10-39,26-50c28-20,48.21-43.34,80.21-46.34c19-2,30.79-9.66,50.79-13.66
			c8-1,22,9,29,6c15-5,26-23,42-30c24-10,44.998-17,70.998-18c21,0,56.797,1.706,71.797,17.706c22,24,30.205,77.294-11.685,104.709
			c-18.934,12.391-41.112,23.585-60.112,35.585c-24,16-77.998,14-100.998-7c-7,9-17.626,9.907-27,16
			c-20,13-29.243,8.741-41.243,15.741c-30,16-55.757,8.259-88.757,0.259c-7,15-10,35-25,45c-11,6-53.7,32.664-60.7,19.664
			c-11-19,21.7-91.664,42.7-90.664"/>
		<text id="STGt" transform="matrix(0.9607 -0.2775 0.2775 0.9607 450.4009 419.6011)" class="st0 st12">Sup Temporal Gyrus</text>
	</g>
</g>
<g id="Areas">
	<g id="Broca">
		<path id="BrocaS" class="st3" d="M328,403.501c-1-16-17-26-20-41c-2-9-1-25,1-34c5-26,22-61,55-61c2,0,4,7,9,6
			c5,0,10.715-2.716,12-7c3-10,16-12,26-13c13-1,10.824,4.13,5.256,16.046C406,291.501,411,306.501,407,316.501c-5,14,2,14-2,26
			c-5,13-28,32-39,40c-10,8-26,15-39,14"/>
		<text id="BrocaT" transform="matrix(1 0 0 1 340.6777 319.5015)"><tspan x="0" y="0" class="st0 st10">Broca’s</tspan><tspan x="9.012" y="28.8" class="st0 st10">Area</tspan></text>
	</g>
	<g id="Wernicke">
		<path id="WernickeS" class="st2" d="M675,300.501c14-33,50.005-5.214,73.005-6.214c19-1,33.995-3.786,42.995,18.214
			c5,13,0,14,0,28c0,20,0,28-16,42c-16,16-34,23-57,25c-19,1-33,6-33-16c0-11,5-22,6-33c3-22-5-30-15-47"/>
		<text id="WernickeT" transform="matrix(1 0 0 1 708.5679 333.5015)"><tspan x="0" y="0" class="st0 st10">Wernicke’s</tspan><tspan x="21.111" y="28.8" class="st0 st10">Area</tspan></text>
	</g>
</g>
<g id="Midsagittal">
	<g id="Amygdala">
		<ellipse class="st6" cx="471.772" cy="746.798" rx="48.471" ry="20.703"/>
		<path id="Amygdala_1_" class="st1" d="M491.833,602.886c-22.513,0-78.794,14.999-67.538-25.498
			c11.256-37.499,81.608-7.5,77.387,23.998"/>
		<line class="st5" x1="471.551" y1="586.91" x2="471.551" y2="729.566"/>
		<text id="AmygdalaT" transform="matrix(1 0 0 1 431.0952 755.0708)" class="st0 st11">Amygdala</text>
	</g>
	<path id="Central_Amygdala" class="st1" d="M481.983,589.387C512.938,548.889,497.46,629.885,481.983,589.387"/>
	<path id="Hypothalamus" class="st1" d="M435.551,409.396c-60.502-43.498,56.428-111.389,63.463-73.89
		c-32.362,0-57.834,51.391-66.277,78.39"/>
	<g id="CorpusCallosum">
		<path id="CorpusCallosum_1_" class="st1" d="M418.667,505.391c36.355-106.576-36.415-52.334-91.458-76.496
			c-58.05-20.626-56.513-111.423,2.792-136.394c57-24,86-36,143.541-26.977c47.513,7.451,225.454,16.924,242.103,76.217
			c11.395,40.583-47.922,112.21-95.298,69.49c-44.114-39.777-21.198-82.784-93.597-87.895
			c-52.138-3.681-99.404-9.926-149.326,28.437C317.268,398,495.251,408.749,427.108,481.393"/>
		<text id="CorpusCallosumT" transform="matrix(1 0 0 1 399.5962 310.5015)" class="st0 st12">Corpus CAllosum</text>
	</g>
	<g id="Thalamus_1_">
		<path id="Thalamus" class="st1" d="M415.852,505.391c29.548-29.998,4.222-73.496,2.814-107.994
			c-1.407-53.998,43.618-70.497,85.83-73.497c42.21-3,101.306,9,94.272,67.497c-7.036,53.997-60.503,29.999-94.272,34.498
			c-23.92,3-40.805,22.499-52.061,43.498c-8.442,16.499,8.045,41.998-1.804,52.497c0-5.999-12.267-14.999-12.267-20.999
			C428.516,505.391,425.701,518.89,415.852,505.391"/>
		<text id="ThalamusT" transform="matrix(0.9959 -0.0904 0.0904 0.9959 459.8511 396.5229)" class="st0 st12">Thalamus</text>
	</g>
	<path id="Pituitary" class="st1" d="M449.07,501.673c9,17.591,10.5,44.775-15,38.379c-26.999-6.396-6-47.974,16.499-38.379"/>
	<g id="BasolateralT_1_">
		<ellipse class="st6" cx="385.579" cy="704.07" rx="52.606" ry="25.496"/>
		<line class="st5" x1="452.799" y1="589.587" x2="452.799" y2="705.773"/>
		<line class="st5" x1="452.799" y1="705.773" x2="441.854" y2="705.773"/>
		<text id="BasolateralT" transform="matrix(1 0 0 1 343.0996 714.5747)" class="st0 st11">bas0lateral</text>
		<path class="st5" d="M395.378,724.671c-3,15.575,6,25.588,26.999,22.251"/>
		<line class="st5" x1="416.377" y1="736.118" x2="422.377" y2="746.922"/>
		<line class="st5" x1="422.377" y1="746.922" x2="416.377" y2="756.17"/>
		<path id="Basolateral_Amygdala" class="st1" d="M449.622,584.887C479.169,581.887,442.586,628.385,449.622,584.887"/>
	</g>
	<line class="st5" x1="526.243" y1="734.715" x2="520.244" y2="745.52"/>
	<g id="CentralAmygdala">
		<ellipse class="st6" cx="539.913" cy="703.238" rx="39.088" ry="19.735"/>
		<line class="st5" x1="490.919" y1="589.387" x2="490.919" y2="705.573"/>
		<line class="st5" x1="490.919" y1="705.573" x2="501.864" y2="705.573"/>
		<text id="CentralAmygdalaT" transform="matrix(1 0 0 1 508.5249 711.5728)" class="st0 st11">Central</text>
		<path class="st5" d="M547.243,722.973c3,15.771-6,25.911-26.999,22.532"/>
		<line class="st5" x1="520.244" y1="745.52" x2="526.243" y2="754.768"/>
	</g>
	<g id="SpinalCord">
		<ellipse class="st6" cx="801" cy="712.511" rx="116" ry="29.009"/>
		<path id="Spinal" class="st8" d="M701.172,723.501h13.301c2.027-1.048,3.361-0.787,4.246,0h1.276
			c-0.081-17.952-1.499-43.617-12.173-60c-7.756-11-24.355-22-35.428-32s-19.934-22-29.9-33c-15.494-16-32.094-35-54.238-42
			c-26.999-10.038-30.767-102.206-38.771-117.825l-14.379,127.825c-4.43,59,77.506,72,115.145,101c15.494,13,24.355,34,29.9,52
			C682.362,728.501,693.453,717.48,701.172,723.501z"/>
		<g id="SpinalCordT">
			<line class="st5" x1="707.082" y1="705.573" x2="798.253" y2="705.573"/>
			<text transform="matrix(1 0 0 1 806.9771 715.3726)" class="st0 st11">Spinal Cord</text>
		</g>
	</g>
	<g id="Medulla">
		<line class="st5" x1="608.086" y1="622.501" x2="608.086" y2="726.094"/>
		<text id="MedullaT" transform="matrix(1 0 0 1 579.0005 756.1704)" class="st0 st11">Medulla</text>
	</g>
	<g id="VisualCortex">
		<ellipse class="st6" cx="970.595" cy="529.676" rx="47.066" ry="145.719"/>
		<line class="st5" x1="969.568" y1="448.938" x2="969.568" y2="571.464"/>
		<text id="VisualCortexT" transform="matrix(1 0 0 1 938.604 605.48)"><tspan x="0" y="0" class="st0 st12">Visual</tspan><tspan x="0.448" y="43.2" class="st0 st12">Cortex</tspan></text>
	</g>
	<g id="Pons_1_">
		<path id="Pons" class="st1" d="M548.089,559.944c-41.878,55.512-139.307-65.32-71.428-121.431
			C556.964,372.131,588.202,506.775,548.089,559.944C524.208,591.6,562.089,541.386,548.089,559.944z"/>
		<text id="PonsT" transform="matrix(1 0 0 1 490.1792 507.8335)" class="st0 st12">Pons</text>
	</g>
	<g id="PrefrontalCortex">
		<ellipse class="st6" cx="106.533" cy="557.82" rx="64.447" ry="135.137"/>
		<line class="st7" x1="104.611" y1="449.515" x2="104.611" y2="563.728"/>
		<text transform="matrix(1 0 0 1 52.7554 595.4653)"><tspan x="0" y="0" class="st0 st12">Prefrontal</tspan><tspan x="21.34" y="43.2" class="st0 st12">Cortex</tspan></text>
	</g>
	<g id="AuditoryCortex">
		<ellipse class="st6" cx="306.597" cy="614.851" rx="98.118" ry="43.387"/>
		<line id="AuditoryCortexL" class="st5" x1="404.715" y1="610.202" x2="309" y2="610.202"/>
		<text transform="matrix(1 0 0 1 231.876 601.0786)"><tspan x="0" y="0" class="st0 st11">Auditory</tspan><tspan x="10.298" y="36" class="st0 st11">Cortex</tspan></text>
	</g>
	<text transform="matrix(0.0253 -0.9997 0.9997 0.0253 448.8374 474.5151)" class="st0 st9">Hypothalamus</text>
	<g id="Pituitary_1_">
		<line id="PituitaryGlandT" class="st4" x1="434.07" y1="527.209" x2="412.532" y2="527.209"/>
		<text id="PituitaryGland" transform="matrix(1 0 0 1 361.1572 522.4897)"><tspan x="0" y="0" class="st0 st9">Pituitary</tspan><tspan x="8.736" y="25.2" class="st0 st9">Gland</tspan></text>
	</g>
</g>
</svg>
